PathFileType	4	(X/Y/Z)	c:/Users/goper/Files/vsCode/490R/osim_files/C07/C07_Static.trc
DataRate	CameraRate	NumFrames	NumMarkers	Units                	OrigDataRate	OrigDataStartFrame	OrigNumFrames
250.00	250.00	4	36	mm	250.0	1	1554
                Frame#	Time	LPSIS			LASIS			LTH1			LTH2			LTH3			LTH4			LLFE			LMFE			LSH1			LSH2			LSH3			LSH4			LLMAL			LMMAL			LCAL			LMTP5			LTOE			LMTP1			RPSIS			RASIS			RTH1			RTH2			RTH3			RTH4			RLFE			RMFE			RSH1			RSH2			RSH3			RSH4			RLMAL			RMMAL			RCAL			RMTP1			RTOE			RMTP5		
		X1	Y1	Z1	X2	Y2	Z2	X3	Y3	Z3	X4	Y4	Z4	X5	Y5	Z5	X6	Y6	Z6	X7	Y7	Z7	X8	Y8	Z8	X9	Y9	Z9	X10	Y10	Z10	X11	Y11	Z11	X12	Y12	Z12	X13	Y13	Z13	X14	Y14	Z14	X15	Y15	Z15	X16	Y16	Z16	X17	Y17	Z17	X18	Y18	Z18	X19	Y19	Z19	X20	Y20	Z20	X21	Y21	Z21	X22	Y22	Z22	X23	Y23	Z23	X24	Y24	Z24	X25	Y25	Z25	X26	Y26	Z26	X27	Y27	Z27	X28	Y28	Z28	X29	Y29	Z29	X30	Y30	Z30	X31	Y31	Z31	X32	Y32	Z32	X33	Y33	Z33	X34	Y34	Z34	X35	Y35	Z35	X36	Y36	Z36

1	0.00000	-401.91672	1031.90479	362.51630	-237.86461	986.59338	283.12549	-319.41748	800.12634	218.85547	-319.01639	721.60120	215.78456	-318.24109	645.45282	224.20366	-242.12395	722.62122	244.16827	-348.10248	524.53528	240.08548	-357.42874	502.66495	361.47424	-384.01672	337.74554	214.87009	-400.93469	292.56235	225.65547	-345.22345	342.28482	229.76869	-349.31845	296.52667	234.46355	-406.27322	109.15365	257.93985	-382.97684	127.06184	331.85468	-465.52237	46.97852	301.11383	-282.01880	41.17167	226.35980	-226.42941	52.89308	282.68542	-256.59610	41.61238	332.96127	-395.32605	1034.41174	463.29062	-240.40855	977.18365	536.32196	-291.75427	829.31488	595.48761	-294.07455	749.45361	596.99738	-300.77042	667.96594	590.88281	-227.20845	745.04822	555.84796	-326.69757	496.78363	556.00000	-341.30911	501.25928	444.64069	-396.41113	321.88730	578.48755	-368.78873	272.63596	580.40930	-335.30545	321.34827	572.07886	-339.18701	276.69635	569.33630	-402.04245	97.29743	540.56317	-378.08423	105.26956	461.85211	-453.23868	45.23914	498.71091	-245.06320	39.90314	464.18570	-219.10928	52.12521	511.58032	-263.89554	36.88128	573.10138
2	0.00400	-401.91873	1031.91809	362.53751	-237.88507	986.57825	283.12866	-319.36850	800.13477	218.84531	-319.00961	721.59070	215.81854	-318.23871	645.44519	224.22368	-242.11115	722.58337	244.16042	-348.12650	524.55127	240.08479	-357.43509	502.66321	361.45459	-384.00461	337.74203	214.91971	-401.64047	291.94116	226.20775	-345.20364	342.27646	229.79510	-349.30725	296.48236	234.52434	-406.27054	109.16993	257.95432	-382.90610	127.00473	331.89157	-465.52237	47.00338	301.13449	-282.00668	41.15261	226.38487	-226.41859	52.83117	282.81754	-256.63504	41.52388	333.12177	-395.34772	1034.39856	463.26187	-240.44514	977.16620	536.34149	-291.79831	829.33704	595.53577	-294.11444	749.46918	597.06525	-300.77396	667.90314	590.87659	-227.22002	745.05029	555.89594	-326.74484	496.79556	556.09332	-341.25809	501.25674	444.63513	-396.40536	321.88742	578.50763	-368.78537	272.61029	580.43597	-335.31873	321.32245	572.09973	-339.16614	276.68262	569.34308	-402.00882	97.30185	540.58063	-378.08743	105.28778	461.87250	-453.21826	45.24819	498.70749	-245.14775	39.84617	464.25891	-219.11847	52.08103	511.60840	-263.89453	36.89996	573.12836
3	0.00800	-401.94022	1031.89233	362.51407	-237.86794	986.60840	283.11359	-319.39160	800.12451	218.87634	-318.59381	721.71082	215.55553	-318.20065	645.43964	224.22888	-242.44438	722.41998	244.52457	-348.11877	524.56476	240.07812	-357.38937	502.67880	361.44043	-383.99817	337.72754	214.92215	-401.62930	291.95828	226.20894	-345.20688	342.26227	229.81027	-349.25534	296.47894	234.47885	-406.28079	109.14685	257.98254	-382.91455	127.02018	331.92438	-465.50851	46.99440	301.12796	-282.00824	41.12111	226.41133	-226.41870	52.77681	282.83398	-256.66760	41.47938	333.19781	-395.34601	1034.39233	463.31158	-240.51482	977.13324	536.40710	-291.86096	829.32446	595.57599	-294.15891	749.43762	597.06927	-300.84775	667.88727	590.95404	-227.25153	745.03986	555.92981	-326.75674	496.78265	556.08704	-341.21777	501.24820	444.63049	-396.40384	321.84097	578.52307	-368.84888	272.62039	580.47699	-335.33542	321.28732	572.12415	-339.22385	276.67557	569.40649	-402.06754	97.29314	540.58801	-378.06927	105.28563	461.89355	-453.66748	45.39819	498.82654	-245.19156	39.77446	464.32318	-219.11079	52.08559	511.68066	-263.91971	36.87525	573.17145
4	0.01200	-401.95792	1031.88904	362.53577	-237.87737	986.59161	283.13330	-319.39877	800.14734	218.88608	-318.99002	721.59863	215.79135	-318.18579	645.42761	224.25198	-242.14453	722.54944	244.23967	-348.04199	524.55170	240.12070	-357.42102	502.71115	361.49036	-383.97440	337.71906	214.92531	-401.65512	291.94391	226.24738	-345.17807	342.25482	229.84166	-349.32071	296.49783	234.52740	-406.25018	109.14556	257.98904	-383.02917	127.06319	331.95950	-465.55017	47.01569	301.15421	-282.04227	41.13272	226.44371	-226.45636	52.75352	282.92032	-256.69781	41.42836	333.21353	-395.40521	1034.36218	463.30795	-240.55510	977.12964	536.41467	-291.96912	829.36243	595.62964	-294.24658	749.47748	597.10699	-300.94540	667.94067	591.00873	-227.30009	745.01801	555.99573	-326.82190	496.75494	556.11841	-341.17493	501.23615	444.62845	-396.45291	321.85947	578.51025	-368.89386	272.61334	580.49646	-335.36185	321.28116	572.16083	-339.24847	276.65189	569.45428	-402.16867	97.33167	540.66479	-378.07913	105.26799	461.90536	-453.26196	45.25505	498.72745	-245.23466	39.75838	464.38736	-219.13315	52.06183	511.71002	-263.93268	36.86929	573.19977
